<mxfile host="drawio-plugin" modified="2022-07-25T14:18:26.134Z" agent="5.0 (Macintosh; Intel Mac OS X 10_15_7) AppleWebKit/537.36 (KHTML, like Gecko) Chrome/97.0.4692.45 Safari/537.36" version="15.5.4" etag="BMJ-T9GkO4PTHWRZ9qxO" type="embed"><diagram id="7yobq9NgEQBDGfId5P3g" name="Page-1"><mxGraphModel dx="1146" dy="798" grid="1" gridSize="10" guides="1" tooltips="1" connect="1" arrows="1" fold="1" page="1" pageScale="1" pageWidth="1400" pageHeight="850" math="0" shadow="0"><root><mxCell id="0"/><mxCell id="1" parent="0"/><mxCell id="10" style="edgeStyle=orthogonalEdgeStyle;rounded=1;orthogonalLoop=1;jettySize=auto;html=1;entryX=0.5;entryY=0;entryDx=0;entryDy=0;" edge="1" parent="1" source="7" target="8"><mxGeometry relative="1" as="geometry"><Array as="points"><mxPoint x="325" y="120"/><mxPoint x="210" y="120"/></Array></mxGeometry></mxCell><mxCell id="11" style="edgeStyle=orthogonalEdgeStyle;rounded=1;orthogonalLoop=1;jettySize=auto;html=1;entryX=0.5;entryY=0;entryDx=0;entryDy=0;" edge="1" parent="1" source="7" target="9"><mxGeometry relative="1" as="geometry"><Array as="points"><mxPoint x="325" y="120"/><mxPoint x="425" y="120"/></Array></mxGeometry></mxCell><mxCell id="7" value="&lt;font style=&quot;font-size: 14px&quot;&gt;sql-wasm.js&lt;/font&gt;" style="rounded=1;whiteSpace=wrap;html=1;" vertex="1" parent="1"><mxGeometry x="270" y="40" width="110" height="40" as="geometry"/></mxCell><mxCell id="14" value="" style="edgeStyle=orthogonalEdgeStyle;rounded=1;orthogonalLoop=1;jettySize=auto;html=1;" edge="1" parent="1" source="8" target="13"><mxGeometry relative="1" as="geometry"/></mxCell><mxCell id="8" value="&lt;font style=&quot;font-size: 14px&quot;&gt;加载sql-wasm.wasm&lt;/font&gt;" style="rounded=1;whiteSpace=wrap;html=1;" vertex="1" parent="1"><mxGeometry x="140" y="200" width="140" height="40" as="geometry"/></mxCell><mxCell id="12" style="edgeStyle=orthogonalEdgeStyle;rounded=1;orthogonalLoop=1;jettySize=auto;html=1;entryX=1;entryY=0.5;entryDx=0;entryDy=0;" edge="1" parent="1" source="9" target="13"><mxGeometry relative="1" as="geometry"><mxPoint x="425" y="340" as="targetPoint"/><Array as="points"><mxPoint x="425" y="380"/></Array></mxGeometry></mxCell><mxCell id="15" value="&lt;font style=&quot;font-size: 14px&quot;&gt;是&lt;/font&gt;" style="edgeLabel;html=1;align=center;verticalAlign=middle;resizable=0;points=[];rotation=0;" vertex="1" connectable="0" parent="12"><mxGeometry x="0.0286" relative="1" as="geometry"><mxPoint x="25" y="-61" as="offset"/></mxGeometry></mxCell><mxCell id="17" value="" style="edgeStyle=orthogonalEdgeStyle;rounded=1;orthogonalLoop=1;jettySize=auto;html=1;fontSize=14;" edge="1" parent="1" source="9" target="16"><mxGeometry relative="1" as="geometry"/></mxCell><mxCell id="21" value="否" style="edgeLabel;html=1;align=center;verticalAlign=middle;resizable=0;points=[];fontSize=14;" vertex="1" connectable="0" parent="17"><mxGeometry x="-0.15" relative="1" as="geometry"><mxPoint as="offset"/></mxGeometry></mxCell><mxCell id="9" value="&lt;font style=&quot;font-size: 14px&quot;&gt;内存有.sqlite&lt;/font&gt;" style="rhombus;whiteSpace=wrap;html=1;" vertex="1" parent="1"><mxGeometry x="370" y="170" width="110" height="100" as="geometry"/></mxCell><mxCell id="13" value="执行SQL" style="whiteSpace=wrap;html=1;rounded=1;" vertex="1" parent="1"><mxGeometry x="150" y="360" width="120" height="40" as="geometry"/></mxCell><mxCell id="20" value="" style="edgeStyle=orthogonalEdgeStyle;rounded=1;orthogonalLoop=1;jettySize=auto;html=1;fontSize=14;" edge="1" parent="1" source="16" target="18"><mxGeometry relative="1" as="geometry"/></mxCell><mxCell id="22" value="是" style="edgeLabel;html=1;align=center;verticalAlign=middle;resizable=0;points=[];fontSize=14;" vertex="1" connectable="0" parent="20"><mxGeometry x="0.4" y="1" relative="1" as="geometry"><mxPoint x="-2" y="-17" as="offset"/></mxGeometry></mxCell><mxCell id="25" style="edgeStyle=orthogonalEdgeStyle;rounded=1;orthogonalLoop=1;jettySize=auto;html=1;entryX=0;entryY=0.5;entryDx=0;entryDy=0;fontSize=14;" edge="1" parent="1" source="16" target="24"><mxGeometry relative="1" as="geometry"/></mxCell><mxCell id="26" value="否" style="edgeLabel;html=1;align=center;verticalAlign=middle;resizable=0;points=[];fontSize=14;" vertex="1" connectable="0" parent="25"><mxGeometry x="-0.1714" y="-3" relative="1" as="geometry"><mxPoint y="-3" as="offset"/></mxGeometry></mxCell><mxCell id="16" value="&lt;font style=&quot;font-size: 14px&quot;&gt;IndexedDB有.sqlite&lt;br&gt;且未过期&lt;br&gt;&lt;/font&gt;" style="rhombus;whiteSpace=wrap;html=1;" vertex="1" parent="1"><mxGeometry x="550" y="162.5" width="170" height="115" as="geometry"/></mxCell><mxCell id="23" style="edgeStyle=orthogonalEdgeStyle;rounded=1;orthogonalLoop=1;jettySize=auto;html=1;entryX=1;entryY=0.5;entryDx=0;entryDy=0;fontSize=14;" edge="1" parent="1" source="18" target="13"><mxGeometry relative="1" as="geometry"/></mxCell><mxCell id="18" value="读取到内存" style="rounded=1;whiteSpace=wrap;html=1;fontSize=14;" vertex="1" parent="1"><mxGeometry x="575" y="360" width="120" height="40" as="geometry"/></mxCell><mxCell id="27" style="edgeStyle=orthogonalEdgeStyle;rounded=1;orthogonalLoop=1;jettySize=auto;html=1;entryX=1;entryY=0.5;entryDx=0;entryDy=0;fontSize=14;" edge="1" parent="1" source="24" target="18"><mxGeometry relative="1" as="geometry"><Array as="points"><mxPoint x="840" y="380"/></Array></mxGeometry></mxCell><mxCell id="29" value="" style="edgeStyle=orthogonalEdgeStyle;rounded=1;orthogonalLoop=1;jettySize=auto;html=1;fontSize=14;" edge="1" parent="1" source="24" target="28"><mxGeometry relative="1" as="geometry"/></mxCell><mxCell id="24" value="请求.sqlite" style="rounded=1;whiteSpace=wrap;html=1;fontSize=14;" vertex="1" parent="1"><mxGeometry x="780" y="200" width="120" height="40" as="geometry"/></mxCell><mxCell id="28" value="存到IndexedDB" style="rounded=1;whiteSpace=wrap;html=1;fontSize=14;" vertex="1" parent="1"><mxGeometry x="970" y="200" width="120" height="40" as="geometry"/></mxCell></root></mxGraphModel></diagram></mxfile>